<svg version="1.1" xmlns="http://www.w3.org/2000/svg" viewBox="0 0 962.135986328125 717.3254089355469" width="962.135986328125" height="717.3254089355469" filter="invert(93%) hue-rotate(180deg)">
  <!-- svg-source:excalidraw -->
  
  <defs>
    <style class="style-fonts">
      @font-face {
        font-family: "Virgil";
        src: url("https://excalidraw.com/Virgil.woff2");
      }
      @font-face {
        font-family: "Cascadia";
        src: url("https://excalidraw.com/Cascadia.woff2");
      }
      @font-face {
        font-family: "Assistant";
        src: url("https://excalidraw.com/Assistant-Regular.woff2");
      }
    </style>
    
  </defs>
  <rect x="0" y="0" width="962.135986328125" height="717.3254089355469" fill="#ffffff"></rect><g stroke-linecap="round" transform="translate(838.746826171875 276.4050598144531) rotate(0 56.694580078125 60.03076171875)"><path d="M28.35 0 C48.96 0, 69.57 0, 85.04 0 M28.35 0 C42.91 0, 57.47 0, 85.04 0 M85.04 0 C103.94 0, 113.39 9.45, 113.39 28.35 M85.04 0 C103.94 0, 113.39 9.45, 113.39 28.35 M113.39 28.35 C113.39 51.24, 113.39 74.13, 113.39 91.71 M113.39 28.35 C113.39 43, 113.39 57.65, 113.39 91.71 M113.39 91.71 C113.39 110.61, 103.94 120.06, 85.04 120.06 M113.39 91.71 C113.39 110.61, 103.94 120.06, 85.04 120.06 M85.04 120.06 C70.28 120.06, 55.52 120.06, 28.35 120.06 M85.04 120.06 C72.85 120.06, 60.66 120.06, 28.35 120.06 M28.35 120.06 C9.45 120.06, 0 110.61, 0 91.71 M28.35 120.06 C9.45 120.06, 0 110.61, 0 91.71 M0 91.71 C0 71.02, 0 50.33, 0 28.35 M0 91.71 C0 75.2, 0 58.69, 0 28.35 M0 28.35 C0 9.45, 9.45 0, 28.35 0 M0 28.35 C0 9.45, 9.45 0, 28.35 0" stroke="#1e1e1e" stroke-width="2" fill="none"></path></g><g transform="translate(856.4014434814453 281.4050598144531) rotate(0 39.03996276855469 12.5)"><text x="39.03996276855469" y="0" font-family="Virgil, Segoe UI Emoji" font-size="20px" fill="#1e1e1e" text-anchor="middle" style="white-space: pre;" direction="ltr" dominant-baseline="text-before-edge">Context</text></g><g stroke-linecap="round" transform="translate(887.3269653320312 335.0080261230469) rotate(0 9.899734497070312 9.899734497070312)"><path d="M19.8 9.9 C19.8 10.47, 19.75 11.05, 19.65 11.62 C19.55 12.18, 19.4 12.75, 19.2 13.29 C19.01 13.82, 18.76 14.35, 18.47 14.85 C18.19 15.35, 17.85 15.82, 17.48 16.26 C17.12 16.7, 16.7 17.12, 16.26 17.48 C15.82 17.85, 15.35 18.19, 14.85 18.47 C14.35 18.76, 13.82 19.01, 13.29 19.2 C12.75 19.4, 12.18 19.55, 11.62 19.65 C11.05 19.75, 10.47 19.8, 9.9 19.8 C9.33 19.8, 8.74 19.75, 8.18 19.65 C7.62 19.55, 7.05 19.4, 6.51 19.2 C5.98 19.01, 5.45 18.76, 4.95 18.47 C4.45 18.19, 3.98 17.85, 3.54 17.48 C3.1 17.12, 2.68 16.7, 2.32 16.26 C1.95 15.82, 1.61 15.35, 1.33 14.85 C1.04 14.35, 0.79 13.82, 0.6 13.29 C0.4 12.75, 0.25 12.18, 0.15 11.62 C0.05 11.05, 0 10.47, 0 9.9 C0 9.33, 0.05 8.74, 0.15 8.18 C0.25 7.62, 0.4 7.05, 0.6 6.51 C0.79 5.98, 1.04 5.45, 1.33 4.95 C1.61 4.45, 1.95 3.98, 2.32 3.54 C2.68 3.1, 3.1 2.68, 3.54 2.32 C3.98 1.95, 4.45 1.61, 4.95 1.33 C5.45 1.04, 5.98 0.79, 6.51 0.6 C7.05 0.4, 7.62 0.25, 8.18 0.15 C8.74 0.05, 9.33 0, 9.9 0 C10.47 0, 11.05 0.05, 11.62 0.15 C12.18 0.25, 12.75 0.4, 13.29 0.6 C13.82 0.79, 14.35 1.04, 14.85 1.33 C15.35 1.61, 15.82 1.95, 16.26 2.32 C16.7 2.68, 17.12 3.1, 17.48 3.54 C17.85 3.98, 18.19 4.45, 18.47 4.95 C18.76 5.45, 19.01 5.98, 19.2 6.51 C19.4 7.05, 19.55 7.62, 19.65 8.18 C19.75 8.74, 19.77 9.61, 19.8 9.9 C19.82 10.19, 19.82 9.61, 19.8 9.9" stroke="none" stroke-width="0" fill="#a5d8ff"></path><path d="M19.8 9.9 C19.8 10.47, 19.75 11.05, 19.65 11.62 C19.55 12.18, 19.4 12.75, 19.2 13.29 C19.01 13.82, 18.76 14.35, 18.47 14.85 C18.19 15.35, 17.85 15.82, 17.48 16.26 C17.12 16.7, 16.7 17.12, 16.26 17.48 C15.82 17.85, 15.35 18.19, 14.85 18.47 C14.35 18.76, 13.82 19.01, 13.29 19.2 C12.75 19.4, 12.18 19.55, 11.62 19.65 C11.05 19.75, 10.47 19.8, 9.9 19.8 C9.33 19.8, 8.74 19.75, 8.18 19.65 C7.62 19.55, 7.05 19.4, 6.51 19.2 C5.98 19.01, 5.45 18.76, 4.95 18.47 C4.45 18.19, 3.98 17.85, 3.54 17.48 C3.1 17.12, 2.68 16.7, 2.32 16.26 C1.95 15.82, 1.61 15.35, 1.33 14.85 C1.04 14.35, 0.79 13.82, 0.6 13.29 C0.4 12.75, 0.25 12.18, 0.15 11.62 C0.05 11.05, 0 10.47, 0 9.9 C0 9.33, 0.05 8.74, 0.15 8.18 C0.25 7.62, 0.4 7.05, 0.6 6.51 C0.79 5.98, 1.04 5.45, 1.33 4.95 C1.61 4.45, 1.95 3.98, 2.32 3.54 C2.68 3.1, 3.1 2.68, 3.54 2.32 C3.98 1.95, 4.45 1.61, 4.95 1.33 C5.45 1.04, 5.98 0.79, 6.51 0.6 C7.05 0.4, 7.62 0.25, 8.18 0.15 C8.74 0.05, 9.33 0, 9.9 0 C10.47 0, 11.05 0.05, 11.62 0.15 C12.18 0.25, 12.75 0.4, 13.29 0.6 C13.82 0.79, 14.35 1.04, 14.85 1.33 C15.35 1.61, 15.82 1.95, 16.26 2.32 C16.7 2.68, 17.12 3.1, 17.48 3.54 C17.85 3.98, 18.19 4.45, 18.47 4.95 C18.76 5.45, 19.01 5.98, 19.2 6.51 C19.4 7.05, 19.55 7.62, 19.65 8.18 C19.75 8.74, 19.77 9.61, 19.8 9.9 C19.82 10.19, 19.82 9.61, 19.8 9.9" stroke="#1971c2" stroke-width="2" fill="none"></path></g><g stroke-linecap="round"><g transform="translate(689.6990966796875 347.9475154297753) rotate(0 97.0706271211493 -1.3007599698075012)"><path d="M0 0 C32.36 -0.43, 161.78 -2.17, 194.14 -2.6 M0 0 C32.36 -0.43, 161.78 -2.17, 194.14 -2.6" stroke="#e03131" stroke-width="2" fill="none"></path></g><g transform="translate(689.6990966796875 347.9475154297753) rotate(0 97.0706271211493 -1.3007599698075012)"><path d="M166.09 8.04 C175.37 4.52, 184.65 1, 194.14 -2.6 M166.09 8.04 C175.27 4.56, 184.44 1.08, 194.14 -2.6" stroke="#e03131" stroke-width="2" fill="none"></path></g><g transform="translate(689.6990966796875 347.9475154297753) rotate(0 97.0706271211493 -1.3007599698075012)"><path d="M165.82 -12.48 C175.19 -9.21, 184.56 -5.95, 194.14 -2.6 M165.82 -12.48 C175.08 -9.25, 184.34 -6.02, 194.14 -2.6" stroke="#e03131" stroke-width="2" fill="none"></path></g></g><mask></mask><g stroke-linecap="round" transform="translate(329.2593688964844 65.38095092773438) rotate(0 56.694580078125 60.03076171875)"><path d="M28.35 0 C47.28 0, 66.21 0, 85.04 0 M28.35 0 C43.49 0, 58.62 0, 85.04 0 M85.04 0 C103.94 0, 113.39 9.45, 113.39 28.35 M85.04 0 C103.94 0, 113.39 9.45, 113.39 28.35 M113.39 28.35 C113.39 53.07, 113.39 77.8, 113.39 91.71 M113.39 28.35 C113.39 49.01, 113.39 69.68, 113.39 91.71 M113.39 91.71 C113.39 110.61, 103.94 120.06, 85.04 120.06 M113.39 91.71 C113.39 110.61, 103.94 120.06, 85.04 120.06 M85.04 120.06 C65.6 120.06, 46.15 120.06, 28.35 120.06 M85.04 120.06 C67.69 120.06, 50.33 120.06, 28.35 120.06 M28.35 120.06 C9.45 120.06, 0 110.61, 0 91.71 M28.35 120.06 C9.45 120.06, 0 110.61, 0 91.71 M0 91.71 C0 68.51, 0 45.31, 0 28.35 M0 91.71 C0 76.08, 0 60.45, 0 28.35 M0 28.35 C0 9.45, 9.45 0, 28.35 0 M0 28.35 C0 9.45, 9.45 0, 28.35 0" stroke="#1e1e1e" stroke-width="2" fill="none"></path></g><g transform="translate(346.18396759033203 70.38095092773438) rotate(0 39.769981384277344 37.5)"><text x="39.769981384277344" y="0" font-family="Virgil, Segoe UI Emoji" font-size="20px" fill="#1e1e1e" text-anchor="middle" style="white-space: pre;" direction="ltr" dominant-baseline="text-before-edge">Raw</text><text x="39.769981384277344" y="25" font-family="Virgil, Segoe UI Emoji" font-size="20px" fill="#1e1e1e" text-anchor="middle" style="white-space: pre;" direction="ltr" dominant-baseline="text-before-edge">Waker</text><text x="39.769981384277344" y="50" font-family="Virgil, Segoe UI Emoji" font-size="20px" fill="#1e1e1e" text-anchor="middle" style="white-space: pre;" direction="ltr" dominant-baseline="text-before-edge">VTABLE</text></g><g stroke-linecap="round" transform="translate(563.55224609375 284.2757263183594) rotate(0 56.694580078125 60.03076171875)"><path d="M28.35 0 C50.7 0, 73.05 0, 85.04 0 M28.35 0 C46.75 0, 65.14 0, 85.04 0 M85.04 0 C103.94 0, 113.39 9.45, 113.39 28.35 M85.04 0 C103.94 0, 113.39 9.45, 113.39 28.35 M113.39 28.35 C113.39 49.87, 113.39 71.39, 113.39 91.71 M113.39 28.35 C113.39 47.56, 113.39 66.77, 113.39 91.71 M113.39 91.71 C113.39 110.61, 103.94 120.06, 85.04 120.06 M113.39 91.71 C113.39 110.61, 103.94 120.06, 85.04 120.06 M85.04 120.06 C65.32 120.06, 45.6 120.06, 28.35 120.06 M85.04 120.06 C69.01 120.06, 52.97 120.06, 28.35 120.06 M28.35 120.06 C9.45 120.06, 0 110.61, 0 91.71 M28.35 120.06 C9.45 120.06, 0 110.61, 0 91.71 M0 91.71 C0 66.61, 0 41.5, 0 28.35 M0 91.71 C0 66.98, 0 42.25, 0 28.35 M0 28.35 C0 9.45, 9.45 0, 28.35 0 M0 28.35 C0 9.45, 9.45 0, 28.35 0" stroke="#1e1e1e" stroke-width="2" fill="none"></path></g><g transform="translate(591.4768447875977 289.2757263183594) rotate(0 28.769981384277344 12.5)"><text x="28.769981384277344" y="0" font-family="Virgil, Segoe UI Emoji" font-size="20px" fill="#1e1e1e" text-anchor="middle" style="white-space: pre;" direction="ltr" dominant-baseline="text-before-edge">Waker</text></g><g stroke-linecap="round" transform="translate(609.7095184326172 339.62294006347656) rotate(0 9.899734497070312 9.899734497070312)"><path d="M19.8 9.9 C19.8 10.47, 19.75 11.05, 19.65 11.62 C19.55 12.18, 19.4 12.75, 19.2 13.29 C19.01 13.82, 18.76 14.35, 18.47 14.85 C18.19 15.35, 17.85 15.82, 17.48 16.26 C17.12 16.7, 16.7 17.12, 16.26 17.48 C15.82 17.85, 15.35 18.19, 14.85 18.47 C14.35 18.76, 13.82 19.01, 13.29 19.2 C12.75 19.4, 12.18 19.55, 11.62 19.65 C11.05 19.75, 10.47 19.8, 9.9 19.8 C9.33 19.8, 8.74 19.75, 8.18 19.65 C7.62 19.55, 7.05 19.4, 6.51 19.2 C5.98 19.01, 5.45 18.76, 4.95 18.47 C4.45 18.19, 3.98 17.85, 3.54 17.48 C3.1 17.12, 2.68 16.7, 2.32 16.26 C1.95 15.82, 1.61 15.35, 1.33 14.85 C1.04 14.35, 0.79 13.82, 0.6 13.29 C0.4 12.75, 0.25 12.18, 0.15 11.62 C0.05 11.05, 0 10.47, 0 9.9 C0 9.33, 0.05 8.74, 0.15 8.18 C0.25 7.62, 0.4 7.05, 0.6 6.51 C0.79 5.98, 1.04 5.45, 1.33 4.95 C1.61 4.45, 1.95 3.98, 2.32 3.54 C2.68 3.1, 3.1 2.68, 3.54 2.32 C3.98 1.95, 4.45 1.61, 4.95 1.33 C5.45 1.04, 5.98 0.79, 6.51 0.6 C7.05 0.4, 7.62 0.25, 8.18 0.15 C8.74 0.05, 9.33 0, 9.9 0 C10.47 0, 11.05 0.05, 11.62 0.15 C12.18 0.25, 12.75 0.4, 13.29 0.6 C13.82 0.79, 14.35 1.04, 14.85 1.33 C15.35 1.61, 15.82 1.95, 16.26 2.32 C16.7 2.68, 17.12 3.1, 17.48 3.54 C17.85 3.98, 18.19 4.45, 18.47 4.95 C18.76 5.45, 19.01 5.98, 19.2 6.51 C19.4 7.05, 19.55 7.62, 19.65 8.18 C19.75 8.74, 19.77 9.61, 19.8 9.9 C19.82 10.19, 19.82 9.61, 19.8 9.9" stroke="none" stroke-width="0" fill="#a5d8ff"></path><path d="M19.8 9.9 C19.8 10.47, 19.75 11.05, 19.65 11.62 C19.55 12.18, 19.4 12.75, 19.2 13.29 C19.01 13.82, 18.76 14.35, 18.47 14.85 C18.19 15.35, 17.85 15.82, 17.48 16.26 C17.12 16.7, 16.7 17.12, 16.26 17.48 C15.82 17.85, 15.35 18.19, 14.85 18.47 C14.35 18.76, 13.82 19.01, 13.29 19.2 C12.75 19.4, 12.18 19.55, 11.62 19.65 C11.05 19.75, 10.47 19.8, 9.9 19.8 C9.33 19.8, 8.74 19.75, 8.18 19.65 C7.62 19.55, 7.05 19.4, 6.51 19.2 C5.98 19.01, 5.45 18.76, 4.95 18.47 C4.45 18.19, 3.98 17.85, 3.54 17.48 C3.1 17.12, 2.68 16.7, 2.32 16.26 C1.95 15.82, 1.61 15.35, 1.33 14.85 C1.04 14.35, 0.79 13.82, 0.6 13.29 C0.4 12.75, 0.25 12.18, 0.15 11.62 C0.05 11.05, 0 10.47, 0 9.9 C0 9.33, 0.05 8.74, 0.15 8.18 C0.25 7.62, 0.4 7.05, 0.6 6.51 C0.79 5.98, 1.04 5.45, 1.33 4.95 C1.61 4.45, 1.95 3.98, 2.32 3.54 C2.68 3.1, 3.1 2.68, 3.54 2.32 C3.98 1.95, 4.45 1.61, 4.95 1.33 C5.45 1.04, 5.98 0.79, 6.51 0.6 C7.05 0.4, 7.62 0.25, 8.18 0.15 C8.74 0.05, 9.33 0, 9.9 0 C10.47 0, 11.05 0.05, 11.62 0.15 C12.18 0.25, 12.75 0.4, 13.29 0.6 C13.82 0.79, 14.35 1.04, 14.85 1.33 C15.35 1.61, 15.82 1.95, 16.26 2.32 C16.7 2.68, 17.12 3.1, 17.48 3.54 C17.85 3.98, 18.19 4.45, 18.47 4.95 C18.76 5.45, 19.01 5.98, 19.2 6.51 C19.4 7.05, 19.55 7.62, 19.65 8.18 C19.75 8.74, 19.77 9.61, 19.8 9.9 C19.82 10.19, 19.82 9.61, 19.8 9.9" stroke="#1971c2" stroke-width="2" fill="none"></path></g><g stroke-linecap="round" transform="translate(327.3817443847656 285.4700622558594) rotate(0 56.694580078125 60.03076171875)"><path d="M28.35 0 C42.95 0, 57.55 0, 85.04 0 M28.35 0 C47.92 0, 67.49 0, 85.04 0 M85.04 0 C103.94 0, 113.39 9.45, 113.39 28.35 M85.04 0 C103.94 0, 113.39 9.45, 113.39 28.35 M113.39 28.35 C113.39 46.54, 113.39 64.74, 113.39 91.71 M113.39 28.35 C113.39 41.63, 113.39 54.91, 113.39 91.71 M113.39 91.71 C113.39 110.61, 103.94 120.06, 85.04 120.06 M113.39 91.71 C113.39 110.61, 103.94 120.06, 85.04 120.06 M85.04 120.06 C68.56 120.06, 52.08 120.06, 28.35 120.06 M85.04 120.06 C65.13 120.06, 45.21 120.06, 28.35 120.06 M28.35 120.06 C9.45 120.06, 0 110.61, 0 91.71 M28.35 120.06 C9.45 120.06, 0 110.61, 0 91.71 M0 91.71 C0 69.32, 0 46.93, 0 28.35 M0 91.71 C0 74.56, 0 57.4, 0 28.35 M0 28.35 C0 9.45, 9.45 0, 28.35 0 M0 28.35 C0 9.45, 9.45 0, 28.35 0" stroke="#1e1e1e" stroke-width="2" fill="none"></path></g><g transform="translate(355.3063430786133 290.4700622558594) rotate(0 28.769981384277344 25)"><text x="28.769981384277344" y="0" font-family="Virgil, Segoe UI Emoji" font-size="20px" fill="#1e1e1e" text-anchor="middle" style="white-space: pre;" direction="ltr" dominant-baseline="text-before-edge">Raw</text><text x="28.769981384277344" y="25" font-family="Virgil, Segoe UI Emoji" font-size="20px" fill="#1e1e1e" text-anchor="middle" style="white-space: pre;" direction="ltr" dominant-baseline="text-before-edge">Waker</text></g><g stroke-linecap="round" transform="translate(374.8032684326172 356.0216827392578) rotate(0 9.899734497070312 9.899734497070312)"><path d="M19.8 9.9 C19.8 10.47, 19.75 11.05, 19.65 11.62 C19.55 12.18, 19.4 12.75, 19.2 13.29 C19.01 13.82, 18.76 14.35, 18.47 14.85 C18.19 15.35, 17.85 15.82, 17.48 16.26 C17.12 16.7, 16.7 17.12, 16.26 17.48 C15.82 17.85, 15.35 18.19, 14.85 18.47 C14.35 18.76, 13.82 19.01, 13.29 19.2 C12.75 19.4, 12.18 19.55, 11.62 19.65 C11.05 19.75, 10.47 19.8, 9.9 19.8 C9.33 19.8, 8.74 19.75, 8.18 19.65 C7.62 19.55, 7.05 19.4, 6.51 19.2 C5.98 19.01, 5.45 18.76, 4.95 18.47 C4.45 18.19, 3.98 17.85, 3.54 17.48 C3.1 17.12, 2.68 16.7, 2.32 16.26 C1.95 15.82, 1.61 15.35, 1.33 14.85 C1.04 14.35, 0.79 13.82, 0.6 13.29 C0.4 12.75, 0.25 12.18, 0.15 11.62 C0.05 11.05, 0 10.47, 0 9.9 C0 9.33, 0.05 8.74, 0.15 8.18 C0.25 7.62, 0.4 7.05, 0.6 6.51 C0.79 5.98, 1.04 5.45, 1.33 4.95 C1.61 4.45, 1.95 3.98, 2.32 3.54 C2.68 3.1, 3.1 2.68, 3.54 2.32 C3.98 1.95, 4.45 1.61, 4.95 1.33 C5.45 1.04, 5.98 0.79, 6.51 0.6 C7.05 0.4, 7.62 0.25, 8.18 0.15 C8.74 0.05, 9.33 0, 9.9 0 C10.47 0, 11.05 0.05, 11.62 0.15 C12.18 0.25, 12.75 0.4, 13.29 0.6 C13.82 0.79, 14.35 1.04, 14.85 1.33 C15.35 1.61, 15.82 1.95, 16.26 2.32 C16.7 2.68, 17.12 3.1, 17.48 3.54 C17.85 3.98, 18.19 4.45, 18.47 4.95 C18.76 5.45, 19.01 5.98, 19.2 6.51 C19.4 7.05, 19.55 7.62, 19.65 8.18 C19.75 8.74, 19.77 9.61, 19.8 9.9 C19.82 10.19, 19.82 9.61, 19.8 9.9" stroke="none" stroke-width="0" fill="#a5d8ff"></path><path d="M19.8 9.9 C19.8 10.47, 19.75 11.05, 19.65 11.62 C19.55 12.18, 19.4 12.75, 19.2 13.29 C19.01 13.82, 18.76 14.35, 18.47 14.85 C18.19 15.35, 17.85 15.82, 17.48 16.26 C17.12 16.7, 16.7 17.12, 16.26 17.48 C15.82 17.85, 15.35 18.19, 14.85 18.47 C14.35 18.76, 13.82 19.01, 13.29 19.2 C12.75 19.4, 12.18 19.55, 11.62 19.65 C11.05 19.75, 10.47 19.8, 9.9 19.8 C9.33 19.8, 8.74 19.75, 8.18 19.65 C7.62 19.55, 7.05 19.4, 6.51 19.2 C5.98 19.01, 5.45 18.76, 4.95 18.47 C4.45 18.19, 3.98 17.85, 3.54 17.48 C3.1 17.12, 2.68 16.7, 2.32 16.26 C1.95 15.82, 1.61 15.35, 1.33 14.85 C1.04 14.35, 0.79 13.82, 0.6 13.29 C0.4 12.75, 0.25 12.18, 0.15 11.62 C0.05 11.05, 0 10.47, 0 9.9 C0 9.33, 0.05 8.74, 0.15 8.18 C0.25 7.62, 0.4 7.05, 0.6 6.51 C0.79 5.98, 1.04 5.45, 1.33 4.95 C1.61 4.45, 1.95 3.98, 2.32 3.54 C2.68 3.1, 3.1 2.68, 3.54 2.32 C3.98 1.95, 4.45 1.61, 4.95 1.33 C5.45 1.04, 5.98 0.79, 6.51 0.6 C7.05 0.4, 7.62 0.25, 8.18 0.15 C8.74 0.05, 9.33 0, 9.9 0 C10.47 0, 11.05 0.05, 11.62 0.15 C12.18 0.25, 12.75 0.4, 13.29 0.6 C13.82 0.79, 14.35 1.04, 14.85 1.33 C15.35 1.61, 15.82 1.95, 16.26 2.32 C16.7 2.68, 17.12 3.1, 17.48 3.54 C17.85 3.98, 18.19 4.45, 18.47 4.95 C18.76 5.45, 19.01 5.98, 19.2 6.51 C19.4 7.05, 19.55 7.62, 19.65 8.18 C19.75 8.74, 19.77 9.61, 19.8 9.9 C19.82 10.19, 19.82 9.61, 19.8 9.9" stroke="#1971c2" stroke-width="2" fill="none"></path></g><g stroke-linecap="round"><g transform="translate(324.4256591796875 122.59698486328125) rotate(0 -26.6300048828125 121.13255310058591)"><path d="M0 0 C-22.31 0, -44.62 0, -102.15 0 M0 0 C-26.67 0, -53.34 0, -102.15 0 M-102.15 0 C-101.98 61.98, -101.8 123.97, -101.47 242.27 M-102.15 0 C-101.94 75.15, -101.73 150.29, -101.47 242.27 M-101.47 242.27 C-46.49 242.05, 8.49 241.84, 48.89 241.68 M-101.47 242.27 C-66.37 242.13, -31.27 241.99, 48.89 241.68" stroke="#e03131" stroke-width="2" fill="none"></path></g><g transform="translate(324.4256591796875 122.59698486328125) rotate(0 -26.6300048828125 121.13255310058591)"><path d="M20.74 252.05 C26.89 249.79, 33.04 247.52, 48.89 241.68 M20.74 252.05 C28.09 249.35, 35.44 246.64, 48.89 241.68" stroke="#e03131" stroke-width="2" fill="none"></path></g><g transform="translate(324.4256591796875 122.59698486328125) rotate(0 -26.6300048828125 121.13255310058591)"><path d="M20.66 231.53 C26.83 233.75, 32.99 235.97, 48.89 241.68 M20.66 231.53 C28.03 234.18, 35.4 236.83, 48.89 241.68" stroke="#e03131" stroke-width="2" fill="none"></path></g></g><mask></mask><g stroke-linecap="round"><g transform="translate(449.26788330078125 346.7123718261719) rotate(0 77.99130249023438 0.367889404296875)"><path d="M0 0 C34.91 0.16, 69.82 0.33, 155.98 0.74 M0 0 C56.51 0.27, 113.02 0.53, 155.98 0.74" stroke="#e03131" stroke-width="2" fill="none"></path></g><g transform="translate(449.26788330078125 346.7123718261719) rotate(0 77.99130249023438 0.367889404296875)"><path d="M127.74 10.86 C134.06 8.6, 140.38 6.33, 155.98 0.74 M127.74 10.86 C137.97 7.19, 148.2 3.53, 155.98 0.74" stroke="#e03131" stroke-width="2" fill="none"></path></g><g transform="translate(449.26788330078125 346.7123718261719) rotate(0 77.99130249023438 0.367889404296875)"><path d="M127.84 -9.66 C134.14 -7.33, 140.44 -5.01, 155.98 0.74 M127.84 -9.66 C138.04 -5.89, 148.23 -2.13, 155.98 0.74" stroke="#e03131" stroke-width="2" fill="none"></path></g></g><mask></mask><g stroke-linecap="round" transform="translate(834.7067260742188 561.0132751464844) rotate(0 56.694580078125 60.03076171875)"><path d="M28.35 0 C40.9 0, 53.45 0, 85.04 0 M28.35 0 C45.46 0, 62.57 0, 85.04 0 M85.04 0 C103.94 0, 113.39 9.45, 113.39 28.35 M85.04 0 C103.94 0, 113.39 9.45, 113.39 28.35 M113.39 28.35 C113.39 47.38, 113.39 66.41, 113.39 91.71 M113.39 28.35 C113.39 46.28, 113.39 64.22, 113.39 91.71 M113.39 91.71 C113.39 110.61, 103.94 120.06, 85.04 120.06 M113.39 91.71 C113.39 110.61, 103.94 120.06, 85.04 120.06 M85.04 120.06 C68.86 120.06, 52.68 120.06, 28.35 120.06 M85.04 120.06 C71.52 120.06, 58 120.06, 28.35 120.06 M28.35 120.06 C9.45 120.06, 0 110.61, 0 91.71 M28.35 120.06 C9.45 120.06, 0 110.61, 0 91.71 M0 91.71 C0 70.25, 0 48.78, 0 28.35 M0 91.71 C0 78.99, 0 66.27, 0 28.35 M0 28.35 C0 9.45, 9.45 0, 28.35 0 M0 28.35 C0 9.45, 9.45 0, 28.35 0" stroke="#1e1e1e" stroke-width="2" fill="none"></path></g><g transform="translate(858.8813400268555 566.0132751464844) rotate(0 32.51996612548828 12.5)"><text x="32.51996612548828" y="0" font-family="Virgil, Segoe UI Emoji" font-size="20px" fill="#1e1e1e" text-anchor="middle" style="white-space: pre;" direction="ltr" dominant-baseline="text-before-edge">Future</text></g><g transform="translate(846.133544921875 624.0599975585938) rotate(0 43.259971618652344 12.5)"><text x="0" y="0" font-family="Virgil, Segoe UI Emoji" font-size="20px" fill="#2f9e44" text-anchor="start" style="white-space: pre;" direction="ltr" dominant-baseline="text-before-edge">poll(    )</text></g><g stroke-linecap="round" transform="translate(894.4695892333984 624.7763519287109) rotate(0 9.899734497070312 9.899734497070312)"><path d="M19.8 9.9 C19.8 10.47, 19.75 11.05, 19.65 11.62 C19.55 12.18, 19.4 12.75, 19.2 13.29 C19.01 13.82, 18.76 14.35, 18.47 14.85 C18.19 15.35, 17.85 15.82, 17.48 16.26 C17.12 16.7, 16.7 17.12, 16.26 17.48 C15.82 17.85, 15.35 18.19, 14.85 18.47 C14.35 18.76, 13.82 19.01, 13.29 19.2 C12.75 19.4, 12.18 19.55, 11.62 19.65 C11.05 19.75, 10.47 19.8, 9.9 19.8 C9.33 19.8, 8.74 19.75, 8.18 19.65 C7.62 19.55, 7.05 19.4, 6.51 19.2 C5.98 19.01, 5.45 18.76, 4.95 18.47 C4.45 18.19, 3.98 17.85, 3.54 17.48 C3.1 17.12, 2.68 16.7, 2.32 16.26 C1.95 15.82, 1.61 15.35, 1.33 14.85 C1.04 14.35, 0.79 13.82, 0.6 13.29 C0.4 12.75, 0.25 12.18, 0.15 11.62 C0.05 11.05, 0 10.47, 0 9.9 C0 9.33, 0.05 8.74, 0.15 8.18 C0.25 7.62, 0.4 7.05, 0.6 6.51 C0.79 5.98, 1.04 5.45, 1.33 4.95 C1.61 4.45, 1.95 3.98, 2.32 3.54 C2.68 3.1, 3.1 2.68, 3.54 2.32 C3.98 1.95, 4.45 1.61, 4.95 1.33 C5.45 1.04, 5.98 0.79, 6.51 0.6 C7.05 0.4, 7.62 0.25, 8.18 0.15 C8.74 0.05, 9.33 0, 9.9 0 C10.47 0, 11.05 0.05, 11.62 0.15 C12.18 0.25, 12.75 0.4, 13.29 0.6 C13.82 0.79, 14.35 1.04, 14.85 1.33 C15.35 1.61, 15.82 1.95, 16.26 2.32 C16.7 2.68, 17.12 3.1, 17.48 3.54 C17.85 3.98, 18.19 4.45, 18.47 4.95 C18.76 5.45, 19.01 5.98, 19.2 6.51 C19.4 7.05, 19.55 7.62, 19.65 8.18 C19.75 8.74, 19.77 9.61, 19.8 9.9 C19.82 10.19, 19.82 9.61, 19.8 9.9" stroke="none" stroke-width="0" fill="#a5d8ff"></path><path d="M19.8 9.9 C19.8 10.47, 19.75 11.05, 19.65 11.62 C19.55 12.18, 19.4 12.75, 19.2 13.29 C19.01 13.82, 18.76 14.35, 18.47 14.85 C18.19 15.35, 17.85 15.82, 17.48 16.26 C17.12 16.7, 16.7 17.12, 16.26 17.48 C15.82 17.85, 15.35 18.19, 14.85 18.47 C14.35 18.76, 13.82 19.01, 13.29 19.2 C12.75 19.4, 12.18 19.55, 11.62 19.65 C11.05 19.75, 10.47 19.8, 9.9 19.8 C9.33 19.8, 8.74 19.75, 8.18 19.65 C7.62 19.55, 7.05 19.4, 6.51 19.2 C5.98 19.01, 5.45 18.76, 4.95 18.47 C4.45 18.19, 3.98 17.85, 3.54 17.48 C3.1 17.12, 2.68 16.7, 2.32 16.26 C1.95 15.82, 1.61 15.35, 1.33 14.85 C1.04 14.35, 0.79 13.82, 0.6 13.29 C0.4 12.75, 0.25 12.18, 0.15 11.62 C0.05 11.05, 0 10.47, 0 9.9 C0 9.33, 0.05 8.74, 0.15 8.18 C0.25 7.62, 0.4 7.05, 0.6 6.51 C0.79 5.98, 1.04 5.45, 1.33 4.95 C1.61 4.45, 1.95 3.98, 2.32 3.54 C2.68 3.1, 3.1 2.68, 3.54 2.32 C3.98 1.95, 4.45 1.61, 4.95 1.33 C5.45 1.04, 5.98 0.79, 6.51 0.6 C7.05 0.4, 7.62 0.25, 8.18 0.15 C8.74 0.05, 9.33 0, 9.9 0 C10.47 0, 11.05 0.05, 11.62 0.15 C12.18 0.25, 12.75 0.4, 13.29 0.6 C13.82 0.79, 14.35 1.04, 14.85 1.33 C15.35 1.61, 15.82 1.95, 16.26 2.32 C16.7 2.68, 17.12 3.1, 17.48 3.54 C17.85 3.98, 18.19 4.45, 18.47 4.95 C18.76 5.45, 19.01 5.98, 19.2 6.51 C19.4 7.05, 19.55 7.62, 19.65 8.18 C19.75 8.74, 19.77 9.61, 19.8 9.9 C19.82 10.19, 19.82 9.61, 19.8 9.9" stroke="#1971c2" stroke-width="2" fill="none"></path></g><g stroke-linecap="round"><g transform="translate(900.3851836283641 401.6213073730469) rotate(0 -0.07149273956440538 107.98867547567795)"><path d="M0 0 C-0.04 67.37, -0.09 134.73, -0.14 215.98 M0 0 C-0.04 56.72, -0.08 113.44, -0.14 215.98" stroke="#e03131" stroke-width="2" fill="none"></path></g><g transform="translate(900.3851836283641 401.6213073730469) rotate(0 -0.07149273956440538 107.98867547567795)"><path d="M-10.38 187.78 C-7.19 196.58, -4 205.37, -0.14 215.98 M-10.38 187.78 C-7.7 195.19, -5.01 202.59, -0.14 215.98" stroke="#e03131" stroke-width="2" fill="none"></path></g><g transform="translate(900.3851836283641 401.6213073730469) rotate(0 -0.07149273956440538 107.98867547567795)"><path d="M10.14 187.79 C6.93 196.58, 3.72 205.38, -0.14 215.98 M10.14 187.79 C7.44 195.2, 4.74 202.6, -0.14 215.98" stroke="#e03131" stroke-width="2" fill="none"></path></g></g><mask></mask><g transform="translate(373.960205078125 10) rotate(0 111.72991943359375 25)"><text x="0" y="0" font-family="Virgil, Segoe UI Emoji" font-size="20px" fill="#f08c00" text-anchor="start" style="white-space: pre;" direction="ltr" dominant-baseline="text-before-edge">behavior of the waker</text><text x="0" y="25" font-family="Virgil, Segoe UI Emoji" font-size="20px" fill="#f08c00" text-anchor="start" style="white-space: pre;" direction="ltr" dominant-baseline="text-before-edge">defined in the VTABLE</text></g><g stroke-linecap="round"><g transform="translate(384.97576904296875 418.5663146972656) rotate(0 -152.0326268611853 42.896087646484375)"><path d="M0 0 C0 17.69, 0 35.38, 0 85.79 M0 0 C0 25.12, 0 50.24, 0 85.79 M0 85.79 C-66.48 85.59, -132.95 85.39, -304.07 84.88 M0 85.79 C-90.05 85.52, -180.1 85.25, -304.07 84.88" stroke="#e03131" stroke-width="2" fill="none"></path></g><g transform="translate(384.97576904296875 418.5663146972656) rotate(0 -152.0326268611853 42.896087646484375)"><path d="M-275.84 74.7 C-281.66 76.8, -287.48 78.9, -304.07 84.88 M-275.84 74.7 C-284.11 77.68, -292.37 80.66, -304.07 84.88" stroke="#e03131" stroke-width="2" fill="none"></path></g><g transform="translate(384.97576904296875 418.5663146972656) rotate(0 -152.0326268611853 42.896087646484375)"><path d="M-275.91 95.22 C-281.71 93.09, -287.52 90.96, -304.07 84.88 M-275.91 95.22 C-284.15 92.19, -292.4 89.16, -304.07 84.88" stroke="#e03131" stroke-width="2" fill="none"></path></g></g><mask></mask><g stroke-linecap="round" transform="translate(10 433.3204650878906) rotate(0 56.694580078125 137.00247192382812)"><path d="M28.35 0 C44.11 0, 59.88 0, 85.04 0 M28.35 0 C43.05 0, 57.76 0, 85.04 0 M85.04 0 C103.94 0, 113.39 9.45, 113.39 28.35 M85.04 0 C103.94 0, 113.39 9.45, 113.39 28.35 M113.39 28.35 C113.39 91.22, 113.39 154.1, 113.39 245.66 M113.39 28.35 C113.39 78.27, 113.39 128.18, 113.39 245.66 M113.39 245.66 C113.39 264.56, 103.94 274, 85.04 274 M113.39 245.66 C113.39 264.56, 103.94 274, 85.04 274 M85.04 274 C72.25 274, 59.47 274, 28.35 274 M85.04 274 C73.23 274, 61.42 274, 28.35 274 M28.35 274 C9.45 274, 0 264.56, 0 245.66 M28.35 274 C9.45 274, 0 264.56, 0 245.66 M0 245.66 C0 165.53, 0 85.41, 0 28.35 M0 245.66 C0 171.18, 0 96.7, 0 28.35 M0 28.35 C0 9.45, 9.45 0, 28.35 0 M0 28.35 C0 9.45, 9.45 0, 28.35 0" stroke="#1e1e1e" stroke-width="2" fill="none"></path></g><g transform="translate(22.67462158203125 438.3204650878906) rotate(0 44.01995849609375 12.5)"><text x="44.01995849609375" y="0" font-family="Virgil, Segoe UI Emoji" font-size="20px" fill="#1e1e1e" text-anchor="middle" style="white-space: pre;" direction="ltr" dominant-baseline="text-before-edge">Executor</text></g><g stroke-linecap="round" transform="translate(56.598876953125 496.277099609375) rotate(0 8.429031372070312 8.429031372070312)"><path d="M16.86 8.43 C16.86 8.92, 16.81 9.41, 16.73 9.89 C16.65 10.37, 16.52 10.85, 16.35 11.31 C16.18 11.77, 15.97 12.22, 15.73 12.64 C15.48 13.07, 15.2 13.47, 14.89 13.85 C14.57 14.22, 14.22 14.57, 13.85 14.89 C13.47 15.2, 13.07 15.48, 12.64 15.73 C12.22 15.97, 11.77 16.18, 11.31 16.35 C10.85 16.52, 10.37 16.65, 9.89 16.73 C9.41 16.81, 8.92 16.86, 8.43 16.86 C7.94 16.86, 7.45 16.81, 6.97 16.73 C6.48 16.65, 6 16.52, 5.55 16.35 C5.09 16.18, 4.64 15.97, 4.21 15.73 C3.79 15.48, 3.38 15.2, 3.01 14.89 C2.64 14.57, 2.29 14.22, 1.97 13.85 C1.66 13.47, 1.37 13.07, 1.13 12.64 C0.89 12.22, 0.68 11.77, 0.51 11.31 C0.34 10.85, 0.21 10.37, 0.13 9.89 C0.04 9.41, 0 8.92, 0 8.43 C0 7.94, 0.04 7.45, 0.13 6.97 C0.21 6.48, 0.34 6, 0.51 5.55 C0.68 5.09, 0.89 4.64, 1.13 4.21 C1.37 3.79, 1.66 3.38, 1.97 3.01 C2.29 2.64, 2.64 2.29, 3.01 1.97 C3.38 1.66, 3.79 1.37, 4.21 1.13 C4.64 0.89, 5.09 0.68, 5.55 0.51 C6 0.34, 6.48 0.21, 6.97 0.13 C7.45 0.04, 7.94 0, 8.43 0 C8.92 0, 9.41 0.04, 9.89 0.13 C10.37 0.21, 10.85 0.34, 11.31 0.51 C11.77 0.68, 12.22 0.89, 12.64 1.13 C13.07 1.37, 13.47 1.66, 13.85 1.97 C14.22 2.29, 14.57 2.64, 14.89 3.01 C15.2 3.38, 15.48 3.79, 15.73 4.21 C15.97 4.64, 16.18 5.09, 16.35 5.55 C16.52 6, 16.65 6.48, 16.73 6.97 C16.81 7.45, 16.84 8.19, 16.86 8.43 C16.88 8.67, 16.88 8.19, 16.86 8.43" stroke="none" stroke-width="0" fill="#ffec99"></path><path d="M16.86 8.43 C16.86 8.92, 16.81 9.41, 16.73 9.89 C16.65 10.37, 16.52 10.85, 16.35 11.31 C16.18 11.77, 15.97 12.22, 15.73 12.64 C15.48 13.07, 15.2 13.47, 14.89 13.85 C14.57 14.22, 14.22 14.57, 13.85 14.89 C13.47 15.2, 13.07 15.48, 12.64 15.73 C12.22 15.97, 11.77 16.18, 11.31 16.35 C10.85 16.52, 10.37 16.65, 9.89 16.73 C9.41 16.81, 8.92 16.86, 8.43 16.86 C7.94 16.86, 7.45 16.81, 6.97 16.73 C6.48 16.65, 6 16.52, 5.55 16.35 C5.09 16.18, 4.64 15.97, 4.21 15.73 C3.79 15.48, 3.38 15.2, 3.01 14.89 C2.64 14.57, 2.29 14.22, 1.97 13.85 C1.66 13.47, 1.37 13.07, 1.13 12.64 C0.89 12.22, 0.68 11.77, 0.51 11.31 C0.34 10.85, 0.21 10.37, 0.13 9.89 C0.04 9.41, 0 8.92, 0 8.43 C0 7.94, 0.04 7.45, 0.13 6.97 C0.21 6.48, 0.34 6, 0.51 5.55 C0.68 5.09, 0.89 4.64, 1.13 4.21 C1.37 3.79, 1.66 3.38, 1.97 3.01 C2.29 2.64, 2.64 2.29, 3.01 1.97 C3.38 1.66, 3.79 1.37, 4.21 1.13 C4.64 0.89, 5.09 0.68, 5.55 0.51 C6 0.34, 6.48 0.21, 6.97 0.13 C7.45 0.04, 7.94 0, 8.43 0 C8.92 0, 9.41 0.04, 9.89 0.13 C10.37 0.21, 10.85 0.34, 11.31 0.51 C11.77 0.68, 12.22 0.89, 12.64 1.13 C13.07 1.37, 13.47 1.66, 13.85 1.97 C14.22 2.29, 14.57 2.64, 14.89 3.01 C15.2 3.38, 15.48 3.79, 15.73 4.21 C15.97 4.64, 16.18 5.09, 16.35 5.55 C16.52 6, 16.65 6.48, 16.73 6.97 C16.81 7.45, 16.84 8.19, 16.86 8.43 C16.88 8.67, 16.88 8.19, 16.86 8.43" stroke="#f08c00" stroke-width="2" fill="none"></path></g><g stroke-linecap="round" transform="translate(57.07728576660156 541.6052703857422) rotate(0 8.429031372070312 8.429031372070312)"><path d="M16.86 8.43 C16.86 8.92, 16.81 9.41, 16.73 9.89 C16.65 10.37, 16.52 10.85, 16.35 11.31 C16.18 11.77, 15.97 12.22, 15.73 12.64 C15.48 13.07, 15.2 13.47, 14.89 13.85 C14.57 14.22, 14.22 14.57, 13.85 14.89 C13.47 15.2, 13.07 15.48, 12.64 15.73 C12.22 15.97, 11.77 16.18, 11.31 16.35 C10.85 16.52, 10.37 16.65, 9.89 16.73 C9.41 16.81, 8.92 16.86, 8.43 16.86 C7.94 16.86, 7.45 16.81, 6.97 16.73 C6.48 16.65, 6 16.52, 5.55 16.35 C5.09 16.18, 4.64 15.97, 4.21 15.73 C3.79 15.48, 3.38 15.2, 3.01 14.89 C2.64 14.57, 2.29 14.22, 1.97 13.85 C1.66 13.47, 1.37 13.07, 1.13 12.64 C0.89 12.22, 0.68 11.77, 0.51 11.31 C0.34 10.85, 0.21 10.37, 0.13 9.89 C0.04 9.41, 0 8.92, 0 8.43 C0 7.94, 0.04 7.45, 0.13 6.97 C0.21 6.48, 0.34 6, 0.51 5.55 C0.68 5.09, 0.89 4.64, 1.13 4.21 C1.37 3.79, 1.66 3.38, 1.97 3.01 C2.29 2.64, 2.64 2.29, 3.01 1.97 C3.38 1.66, 3.79 1.37, 4.21 1.13 C4.64 0.89, 5.09 0.68, 5.55 0.51 C6 0.34, 6.48 0.21, 6.97 0.13 C7.45 0.04, 7.94 0, 8.43 0 C8.92 0, 9.41 0.04, 9.89 0.13 C10.37 0.21, 10.85 0.34, 11.31 0.51 C11.77 0.68, 12.22 0.89, 12.64 1.13 C13.07 1.37, 13.47 1.66, 13.85 1.97 C14.22 2.29, 14.57 2.64, 14.89 3.01 C15.2 3.38, 15.48 3.79, 15.73 4.21 C15.97 4.64, 16.18 5.09, 16.35 5.55 C16.52 6, 16.65 6.48, 16.73 6.97 C16.81 7.45, 16.84 8.19, 16.86 8.43 C16.88 8.67, 16.88 8.19, 16.86 8.43" stroke="none" stroke-width="0" fill="#ffec99"></path><path d="M16.86 8.43 C16.86 8.92, 16.81 9.41, 16.73 9.89 C16.65 10.37, 16.52 10.85, 16.35 11.31 C16.18 11.77, 15.97 12.22, 15.73 12.64 C15.48 13.07, 15.2 13.47, 14.89 13.85 C14.57 14.22, 14.22 14.57, 13.85 14.89 C13.47 15.2, 13.07 15.48, 12.64 15.73 C12.22 15.97, 11.77 16.18, 11.31 16.35 C10.85 16.52, 10.37 16.65, 9.89 16.73 C9.41 16.81, 8.92 16.86, 8.43 16.86 C7.94 16.86, 7.45 16.81, 6.97 16.73 C6.48 16.65, 6 16.52, 5.55 16.35 C5.09 16.18, 4.64 15.97, 4.21 15.73 C3.79 15.48, 3.38 15.2, 3.01 14.89 C2.64 14.57, 2.29 14.22, 1.97 13.85 C1.66 13.47, 1.37 13.07, 1.13 12.64 C0.89 12.22, 0.68 11.77, 0.51 11.31 C0.34 10.85, 0.21 10.37, 0.13 9.89 C0.04 9.41, 0 8.92, 0 8.43 C0 7.94, 0.04 7.45, 0.13 6.97 C0.21 6.48, 0.34 6, 0.51 5.55 C0.68 5.09, 0.89 4.64, 1.13 4.21 C1.37 3.79, 1.66 3.38, 1.97 3.01 C2.29 2.64, 2.64 2.29, 3.01 1.97 C3.38 1.66, 3.79 1.37, 4.21 1.13 C4.64 0.89, 5.09 0.68, 5.55 0.51 C6 0.34, 6.48 0.21, 6.97 0.13 C7.45 0.04, 7.94 0, 8.43 0 C8.92 0, 9.41 0.04, 9.89 0.13 C10.37 0.21, 10.85 0.34, 11.31 0.51 C11.77 0.68, 12.22 0.89, 12.64 1.13 C13.07 1.37, 13.47 1.66, 13.85 1.97 C14.22 2.29, 14.57 2.64, 14.89 3.01 C15.2 3.38, 15.48 3.79, 15.73 4.21 C15.97 4.64, 16.18 5.09, 16.35 5.55 C16.52 6, 16.65 6.48, 16.73 6.97 C16.81 7.45, 16.84 8.19, 16.86 8.43 C16.88 8.67, 16.88 8.19, 16.86 8.43" stroke="#f08c00" stroke-width="2" fill="none"></path></g><g stroke-linecap="round" transform="translate(57.13584899902344 586.5035552978516) rotate(0 8.429031372070312 8.429031372070312)"><path d="M16.86 8.43 C16.86 8.92, 16.81 9.41, 16.73 9.89 C16.65 10.37, 16.52 10.85, 16.35 11.31 C16.18 11.77, 15.97 12.22, 15.73 12.64 C15.48 13.07, 15.2 13.47, 14.89 13.85 C14.57 14.22, 14.22 14.57, 13.85 14.89 C13.47 15.2, 13.07 15.48, 12.64 15.73 C12.22 15.97, 11.77 16.18, 11.31 16.35 C10.85 16.52, 10.37 16.65, 9.89 16.73 C9.41 16.81, 8.92 16.86, 8.43 16.86 C7.94 16.86, 7.45 16.81, 6.97 16.73 C6.48 16.65, 6 16.52, 5.55 16.35 C5.09 16.18, 4.64 15.97, 4.21 15.73 C3.79 15.48, 3.38 15.2, 3.01 14.89 C2.64 14.57, 2.29 14.22, 1.97 13.85 C1.66 13.47, 1.37 13.07, 1.13 12.64 C0.89 12.22, 0.68 11.77, 0.51 11.31 C0.34 10.85, 0.21 10.37, 0.13 9.89 C0.04 9.41, 0 8.92, 0 8.43 C0 7.94, 0.04 7.45, 0.13 6.97 C0.21 6.48, 0.34 6, 0.51 5.55 C0.68 5.09, 0.89 4.64, 1.13 4.21 C1.37 3.79, 1.66 3.38, 1.97 3.01 C2.29 2.64, 2.64 2.29, 3.01 1.97 C3.38 1.66, 3.79 1.37, 4.21 1.13 C4.64 0.89, 5.09 0.68, 5.55 0.51 C6 0.34, 6.48 0.21, 6.97 0.13 C7.45 0.04, 7.94 0, 8.43 0 C8.92 0, 9.41 0.04, 9.89 0.13 C10.37 0.21, 10.85 0.34, 11.31 0.51 C11.77 0.68, 12.22 0.89, 12.64 1.13 C13.07 1.37, 13.47 1.66, 13.85 1.97 C14.22 2.29, 14.57 2.64, 14.89 3.01 C15.2 3.38, 15.48 3.79, 15.73 4.21 C15.97 4.64, 16.18 5.09, 16.35 5.55 C16.52 6, 16.65 6.48, 16.73 6.97 C16.81 7.45, 16.84 8.19, 16.86 8.43 C16.88 8.67, 16.88 8.19, 16.86 8.43" stroke="none" stroke-width="0" fill="#ffec99"></path><path d="M16.86 8.43 C16.86 8.92, 16.81 9.41, 16.73 9.89 C16.65 10.37, 16.52 10.85, 16.35 11.31 C16.18 11.77, 15.97 12.22, 15.73 12.64 C15.48 13.07, 15.2 13.47, 14.89 13.85 C14.57 14.22, 14.22 14.57, 13.85 14.89 C13.47 15.2, 13.07 15.48, 12.64 15.73 C12.22 15.97, 11.77 16.18, 11.31 16.35 C10.85 16.52, 10.37 16.65, 9.89 16.73 C9.41 16.81, 8.92 16.86, 8.43 16.86 C7.94 16.86, 7.45 16.81, 6.97 16.73 C6.48 16.65, 6 16.52, 5.55 16.35 C5.09 16.18, 4.64 15.97, 4.21 15.73 C3.79 15.48, 3.38 15.2, 3.01 14.89 C2.64 14.57, 2.29 14.22, 1.97 13.85 C1.66 13.47, 1.37 13.07, 1.13 12.64 C0.89 12.22, 0.68 11.77, 0.51 11.31 C0.34 10.85, 0.21 10.37, 0.13 9.89 C0.04 9.41, 0 8.92, 0 8.43 C0 7.94, 0.04 7.45, 0.13 6.97 C0.21 6.48, 0.34 6, 0.51 5.55 C0.68 5.09, 0.89 4.64, 1.13 4.21 C1.37 3.79, 1.66 3.38, 1.97 3.01 C2.29 2.64, 2.64 2.29, 3.01 1.97 C3.38 1.66, 3.79 1.37, 4.21 1.13 C4.64 0.89, 5.09 0.68, 5.55 0.51 C6 0.34, 6.48 0.21, 6.97 0.13 C7.45 0.04, 7.94 0, 8.43 0 C8.92 0, 9.41 0.04, 9.89 0.13 C10.37 0.21, 10.85 0.34, 11.31 0.51 C11.77 0.68, 12.22 0.89, 12.64 1.13 C13.07 1.37, 13.47 1.66, 13.85 1.97 C14.22 2.29, 14.57 2.64, 14.89 3.01 C15.2 3.38, 15.48 3.79, 15.73 4.21 C15.97 4.64, 16.18 5.09, 16.35 5.55 C16.52 6, 16.65 6.48, 16.73 6.97 C16.81 7.45, 16.84 8.19, 16.86 8.43 C16.88 8.67, 16.88 8.19, 16.86 8.43" stroke="#f08c00" stroke-width="2" fill="none"></path></g><g stroke-linecap="round" transform="translate(58.58744812011719 632.8520050048828) rotate(0 8.429031372070312 8.429031372070312)"><path d="M16.86 8.43 C16.86 8.92, 16.81 9.41, 16.73 9.89 C16.65 10.37, 16.52 10.85, 16.35 11.31 C16.18 11.77, 15.97 12.22, 15.73 12.64 C15.48 13.07, 15.2 13.47, 14.89 13.85 C14.57 14.22, 14.22 14.57, 13.85 14.89 C13.47 15.2, 13.07 15.48, 12.64 15.73 C12.22 15.97, 11.77 16.18, 11.31 16.35 C10.85 16.52, 10.37 16.65, 9.89 16.73 C9.41 16.81, 8.92 16.86, 8.43 16.86 C7.94 16.86, 7.45 16.81, 6.97 16.73 C6.48 16.65, 6 16.52, 5.55 16.35 C5.09 16.18, 4.64 15.97, 4.21 15.73 C3.79 15.48, 3.38 15.2, 3.01 14.89 C2.64 14.57, 2.29 14.22, 1.97 13.85 C1.66 13.47, 1.37 13.07, 1.13 12.64 C0.89 12.22, 0.68 11.77, 0.51 11.31 C0.34 10.85, 0.21 10.37, 0.13 9.89 C0.04 9.41, 0 8.92, 0 8.43 C0 7.94, 0.04 7.45, 0.13 6.97 C0.21 6.48, 0.34 6, 0.51 5.55 C0.68 5.09, 0.89 4.64, 1.13 4.21 C1.37 3.79, 1.66 3.38, 1.97 3.01 C2.29 2.64, 2.64 2.29, 3.01 1.97 C3.38 1.66, 3.79 1.37, 4.21 1.13 C4.64 0.89, 5.09 0.68, 5.55 0.51 C6 0.34, 6.48 0.21, 6.97 0.13 C7.45 0.04, 7.94 0, 8.43 0 C8.92 0, 9.41 0.04, 9.89 0.13 C10.37 0.21, 10.85 0.34, 11.31 0.51 C11.77 0.68, 12.22 0.89, 12.64 1.13 C13.07 1.37, 13.47 1.66, 13.85 1.97 C14.22 2.29, 14.57 2.64, 14.89 3.01 C15.2 3.38, 15.48 3.79, 15.73 4.21 C15.97 4.64, 16.18 5.09, 16.35 5.55 C16.52 6, 16.65 6.48, 16.73 6.97 C16.81 7.45, 16.84 8.19, 16.86 8.43 C16.88 8.67, 16.88 8.19, 16.86 8.43" stroke="none" stroke-width="0" fill="#ffec99"></path><path d="M16.86 8.43 C16.86 8.92, 16.81 9.41, 16.73 9.89 C16.65 10.37, 16.52 10.85, 16.35 11.31 C16.18 11.77, 15.97 12.22, 15.73 12.64 C15.48 13.07, 15.2 13.47, 14.89 13.85 C14.57 14.22, 14.22 14.57, 13.85 14.89 C13.47 15.2, 13.07 15.48, 12.64 15.73 C12.22 15.97, 11.77 16.18, 11.31 16.35 C10.85 16.52, 10.37 16.65, 9.89 16.73 C9.41 16.81, 8.92 16.86, 8.43 16.86 C7.94 16.86, 7.45 16.81, 6.97 16.73 C6.48 16.65, 6 16.52, 5.55 16.35 C5.09 16.18, 4.64 15.97, 4.21 15.73 C3.79 15.48, 3.38 15.2, 3.01 14.89 C2.64 14.57, 2.29 14.22, 1.97 13.85 C1.66 13.47, 1.37 13.07, 1.13 12.64 C0.89 12.22, 0.68 11.77, 0.51 11.31 C0.34 10.85, 0.21 10.37, 0.13 9.89 C0.04 9.41, 0 8.92, 0 8.43 C0 7.94, 0.04 7.45, 0.13 6.97 C0.21 6.48, 0.34 6, 0.51 5.55 C0.68 5.09, 0.89 4.64, 1.13 4.21 C1.37 3.79, 1.66 3.38, 1.97 3.01 C2.29 2.64, 2.64 2.29, 3.01 1.97 C3.38 1.66, 3.79 1.37, 4.21 1.13 C4.64 0.89, 5.09 0.68, 5.55 0.51 C6 0.34, 6.48 0.21, 6.97 0.13 C7.45 0.04, 7.94 0, 8.43 0 C8.92 0, 9.41 0.04, 9.89 0.13 C10.37 0.21, 10.85 0.34, 11.31 0.51 C11.77 0.68, 12.22 0.89, 12.64 1.13 C13.07 1.37, 13.47 1.66, 13.85 1.97 C14.22 2.29, 14.57 2.64, 14.89 3.01 C15.2 3.38, 15.48 3.79, 15.73 4.21 C15.97 4.64, 16.18 5.09, 16.35 5.55 C16.52 6, 16.65 6.48, 16.73 6.97 C16.81 7.45, 16.84 8.19, 16.86 8.43 C16.88 8.67, 16.88 8.19, 16.86 8.43" stroke="#f08c00" stroke-width="2" fill="none"></path></g><g stroke-linecap="round"><g transform="translate(851.5181884765625 406.3426208496094) rotate(0 -385.5941559134476 93.82093623721767)"><path d="M0 0 C-101.33 58.5, -202.65 117, -323.9 187 M0 0 C-91.12 52.61, -182.25 105.22, -323.9 187 M-323.9 187 C-442.36 187.17, -560.82 187.34, -771.19 187.64 M-323.9 187 C-465.4 187.2, -606.91 187.41, -771.19 187.64" stroke="#e03131" stroke-width="2" fill="none"></path></g><g transform="translate(851.5181884765625 406.3426208496094) rotate(0 -385.5941559134476 93.82093623721767)"><path d="M-743.01 177.34 C-751.83 180.56, -760.64 183.79, -771.19 187.64 M-743.01 177.34 C-750.94 180.24, -758.87 183.14, -771.19 187.64" stroke="#e03131" stroke-width="2" fill="none"></path></g><g transform="translate(851.5181884765625 406.3426208496094) rotate(0 -385.5941559134476 93.82093623721767)"><path d="M-742.98 197.86 C-751.81 194.66, -760.63 191.47, -771.19 187.64 M-742.98 197.86 C-750.92 194.99, -758.85 192.11, -771.19 187.64" stroke="#e03131" stroke-width="2" fill="none"></path></g></g><mask></mask><g stroke-linecap="round"><g transform="translate(618.2847900390625 410.9818420410156) rotate(0 -269.7301445106656 69.26764737892609)"><path d="M0 0 C-46.3 46.3, -92.6 92.6, -135.01 135.01 M0 0 C-37.8 37.8, -75.59 75.59, -135.01 135.01 M-135.01 135.01 C-289.49 136.35, -443.97 137.7, -539.46 138.54 M-135.01 135.01 C-262.86 136.12, -390.71 137.24, -539.46 138.54" stroke="#e03131" stroke-width="2" fill="none"></path></g><g transform="translate(618.2847900390625 410.9818420410156) rotate(0 -269.7301445106656 69.26764737892609)"><path d="M-511.36 128.03 C-521 131.63, -530.63 135.23, -539.46 138.54 M-511.36 128.03 C-519.23 130.97, -527.09 133.91, -539.46 138.54" stroke="#e03131" stroke-width="2" fill="none"></path></g><g transform="translate(618.2847900390625 410.9818420410156) rotate(0 -269.7301445106656 69.26764737892609)"><path d="M-511.18 148.55 C-520.88 145.12, -530.58 141.68, -539.46 138.54 M-511.18 148.55 C-519.1 145.75, -527.02 142.94, -539.46 138.54" stroke="#e03131" stroke-width="2" fill="none"></path></g></g><mask></mask><g stroke-linecap="round"><g transform="translate(828.07861328125 637.2022928993924) rotate(0 -374.4854912128112 1.8948773082034904)"><path d="M0 0 C-217.6 1.1, -435.21 2.2, -748.97 3.79 M0 0 C-168.12 0.85, -336.25 1.7, -748.97 3.79" stroke="#e03131" stroke-width="2" fill="none"></path></g><g transform="translate(828.07861328125 637.2022928993924) rotate(0 -374.4854912128112 1.8948773082034904)"><path d="M-720.83 -6.61 C-729.01 -3.59, -737.18 -0.57, -748.97 3.79 M-720.83 -6.61 C-727.15 -4.28, -733.47 -1.94, -748.97 3.79" stroke="#e03131" stroke-width="2" fill="none"></path></g><g transform="translate(828.07861328125 637.2022928993924) rotate(0 -374.4854912128112 1.8948773082034904)"><path d="M-720.73 13.91 C-728.93 10.97, -737.14 8.03, -748.97 3.79 M-720.73 13.91 C-727.07 11.64, -733.41 9.37, -748.97 3.79" stroke="#e03131" stroke-width="2" fill="none"></path></g></g><mask></mask></svg>